<svg width="24" height="23" viewBox="0 0 24 23" fill="none" xmlns="http://www.w3.org/2000/svg">
<path d="M1.89851 21.1816C3.16482 22.3951 4.82727 23.0013 6.48972 23.0013C8.15347 23.0001 9.81722 22.3951 11.0822 21.1816L14.7552 17.6604L12.9187 15.9004L9.24576 19.4216C7.72747 20.8741 5.25588 20.8766 3.73499 19.4216C2.21671 17.9653 2.21671 15.5967 3.73499 14.1405L7.40927 10.6205L5.57278 8.86053L1.89851 12.3805C-0.632835 14.8064 -0.632835 18.7557 1.89851 21.1816ZM22.1025 10.6205C24.6325 8.19463 24.6325 4.24528 22.1025 1.8194C19.5698 -0.607713 15.4488 -0.605223 12.9187 1.8194L9.24576 5.34059L11.0822 7.10056L14.7552 3.57938C16.2748 2.12684 18.7464 2.12435 20.266 3.57938C21.7843 5.03565 21.7843 7.40426 20.266 8.86053L16.5917 12.3805L18.4282 14.1405L22.1025 10.6205Z" fill="#D9D9D9"/>
<path d="M7.40753 17.6622L5.5708 15.902L16.5925 5.33984L18.4292 7.10011L7.40753 17.6622Z" fill="#D9D9D9"/>
</svg>
