<svg width="40" height="21" viewBox="0 0 40 21" fill="none" xmlns="http://www.w3.org/2000/svg">
<path d="M3.4 20L0.6 0.159999H5.6L7.36 16.6H8.08L10.64 0.159999H18.72L21.28 16.6H22L23.76 0.159999H28.76L25.96 20H17.6L15.04 3.56H14.32L11.76 20H3.4ZM35.3506 20.56C34.284 20.56 33.3773 20.2133 32.6306 19.52C31.9106 18.8 31.5506 17.88 31.5506 16.76C31.5506 15.64 31.9106 14.7333 32.6306 14.04C33.3773 13.32 34.284 12.96 35.3506 12.96C36.444 12.96 37.3506 13.32 38.0706 14.04C38.7906 14.7333 39.1506 15.64 39.1506 16.76C39.1506 17.88 38.7906 18.8 38.0706 19.52C37.3506 20.2133 36.444 20.56 35.3506 20.56Z" fill="#151515"/>
</svg>
