<svg width="24" height="23" viewBox="0 0 24 23" fill="none" xmlns="http://www.w3.org/2000/svg">
<path fill-rule="evenodd" clip-rule="evenodd" d="M6.271 2.02408C5.461 2.12566 5.033 2.31254 4.727 2.59908C4.422 2.88658 4.223 3.28908 4.114 4.04904C4.002 4.832 4 5.86891 4 7.35529V15.5682C4.3957 15.3086 4.83514 15.1164 5.299 14.9999C5.827 14.8667 6.443 14.8667 7.346 14.8677H20V7.35625C20 5.86891 19.998 4.832 19.886 4.04904C19.777 3.28908 19.578 2.88658 19.273 2.59908C18.967 2.31254 18.539 2.12566 17.729 2.02408C16.895 1.91866 15.791 1.91675 14.207 1.91675H9.793C8.209 1.91675 7.105 1.91866 6.271 2.02408ZM6.759 6.32029C6.759 5.89096 7.129 5.54308 7.586 5.54308H16.414C16.631 5.54129 16.8398 5.62198 16.9948 5.76748C17.1498 5.91297 17.2384 6.11141 17.241 6.31933C17.2386 6.52742 17.1502 6.7261 16.9952 6.8718C16.8401 7.01751 16.6311 7.09833 16.414 7.09654H7.586C7.36903 7.09833 7.16017 7.01764 7.00516 6.87214C6.85016 6.72665 6.76164 6.52821 6.759 6.32029ZM7.586 9.16941C7.36903 9.16762 7.16017 9.24831 7.00516 9.39381C6.85016 9.53931 6.76164 9.73775 6.759 9.94566C6.759 10.375 7.129 10.7229 7.586 10.7229H13.103C13.3201 10.7249 13.5293 10.6443 13.6845 10.4988C13.8397 10.3533 13.9284 10.1547 13.931 9.94662C13.9286 9.73837 13.8401 9.53954 13.6848 9.39381C13.5296 9.24808 13.3203 9.16737 13.103 9.16941H7.586Z" fill="#F1F1F1"/>
<path d="M7.473 16.4211H20C19.997 17.5041 19.979 18.3129 19.887 18.9511C19.778 19.7111 19.579 20.1136 19.274 20.4011C18.968 20.6876 18.54 20.8745 17.73 20.9761C16.896 21.0815 15.792 21.0834 14.208 21.0834H9.793C8.209 21.0834 7.105 21.0815 6.271 20.9771C5.461 20.8745 5.033 20.6876 4.727 20.4011C4.422 20.1136 4.223 19.7111 4.114 18.9511C4.073 18.6636 4.046 18.3407 4.03 17.9736C4.16736 17.6148 4.39355 17.2934 4.68913 17.0368C4.98472 16.7802 5.34087 16.5963 5.727 16.5007C6.017 16.4279 6.394 16.4211 7.473 16.4211Z" fill="#F1F1F1"/>
</svg>
